<svg version="1" xmlns="http://www.w3.org/2000/svg" width="7874.667" height="7874.667" viewBox="0 0 5906.000000 5906.000000"><path d="M1676 486.7c-121.8 6.9-245.6 41.8-372 104.9-15.7 7.8-34.8 18-42.5 22.6-182.2 109-324.6 325.3-384 583.3-15.4 67.3-24 127.1-29.7 207-1.7 24.2-1.8 135.3 0 160.5 8.8 130.8 29.4 243.5 67.3 369.7 10.7 35.9 33.3 102.6 38.4 113.8.8 1.7 2.7 6.7 4.3 11 1.7 4.4 5.3 13.8 8.1 20.9 2.8 7 5.1 12.9 5.1 13 0 0-9.8-9.6-21.7-21.4-29.9-29.5-52.2-48.1-81.3-67.9-74.9-50.9-154.4-78.5-244.5-85.1-18.1-1.3-59.4-1.3-76.6 0-55.8 4.3-112.4 17.5-163.8 38.1-29.5 11.9-67.5 32.4-91.6 49.6-44.8 31.8-81.2 73-101.5 114.8-10.8 22.1-17 42.4-20.7 67.4-2.3 16.1-2.3 50.3.1 66.6 5.9 40.5 22.7 79 48.1 110.5 11 13.7 25.4 28.7 33.5 34.9 21.2 16.5 53.1 33.5 91.5 49.1 7.2 2.9 109.5 37.1 227.5 76s216.8 71.9 219.5 73.3c9.6 4.9 15.4 12.2 18.1 22.7 3.2 12.5.2 28.9-7.5 40.9-7.1 11-36.2 35.8-56.1 47.8-40.9 24.6-84.6 37.3-139.8 40.3-54.8 3.1-109.7-6.7-154.5-27.7-33.9-15.9-58-32.7-89.8-62.6-22.7-21.4-43.7-39.6-50.3-43.6-14.4-8.7-26.4-11.5-46.6-10.8-17.4.6-26.4 2.6-39.7 9.2-26.5 13.1-44.8 37.6-49.9 66.7-2.1 12.4-1.5 33.1 1.4 44 2.6 9.7 7.8 20.9 13.9 30.1 5.7 8.7 46.3 49.7 63.3 64 54 45.5 108.1 76.7 168 96.8 56.5 19 110.1 26.8 175.2 25.6 58.5-1 106.7-9.3 161.8-27.7 90.8-30.2 162.2-81.4 206.5-148 19.6-29.5 30.9-58.5 36.1-93.5 2.5-16.4 2.5-51.3.1-67.6-7.7-52.2-29.4-93.9-71-136.8-16.7-17.2-57.5-40.2-105-59.2-5.6-2.3-107-36-225.3-74.9-118.3-38.9-217.3-71.9-220.1-73.3-6.5-3.4-13.7-11.4-16-18-2.4-7-2.4-23.8.1-32.2 3.3-11 6.3-15.5 18.1-27.1 38.8-38.2 90.2-62.5 151-71.3 58.1-8.5 121.5-2.1 170.8 17.3 42.7 16.7 71.3 36.1 115.6 78.2 35 33.3 46.2 40.9 66.4 45 10.9 2.2 32.9 1.5 44.2-1.5 25-6.6 46.8-24.3 58.5-47.6 6.2-12.3 8.9-22.7 9.8-37.2l.7-11.2 7.8 17.2c4.2 9.5 7.7 17.7 7.7 18.4 0 3.8 45.9 96.1 67.6 135.8 61.3 112.3 129.6 218.2 209.8 325 26.3 35 70.9 92.5 71.5 92 .2-.2-.2-1.9-.8-3.7-1.4-4.1-2.6-5.4 17.4 20.2l16.8 21.4 17.9 53.5c19.8 59.6 21.5 63.3 33.6 76.2 18.3 19.5 39.1 29.4 64.5 30.6l11.8.6 6.9 8.8c5.7 7.2 6.7 9 5.4 9.7-2.2 1.2 92.7 119.8 95.6 119.5 1.4-.2 3.9 2.2 8.5 7.9l6.6 8.2-9.3 2.3c-60.4 15.4-119.9 49.6-168.7 96.8-81.6 79.1-122.1 173.7-122.1 285.5 0 101.2 33.8 189.7 100.6 263.4 36.3 40.1 75.6 70.2 120.9 92.6 38.9 19.2 74.6 30 120.4 36.2 14.7 2 20.7 2.3 53.6 2.3 41.2 0 51.2-.9 82-7 59.7-11.9 113.9-37.2 161.6-75.3 19.4-15.4 26-24.1 29.4-38.4 4.7-20.2-.7-40.2-14.9-54.2-12-11.9-23.4-16.6-40.8-16.6-17.2 0-25.3 3.6-46 20.5-12.8 10.5-31.8 22.5-48.3 30.6-24.3 11.9-48.4 19.5-76 24-18.3 3-61.1 3.8-80.8 1.5-57.3-6.6-105.7-28-149.8-66.2-44.7-38.8-76.8-90-90-143.9-1.6-6.6-2.9-12.3-2.9-12.7 0-.5 116.9-.8 259.8-.8l259.7.1 6.8 9.7c5.1 7.3 6.4 9.8 5.2 10-1.2.3-.8 1.4 2.2 5.5 42 58.4 113.3 166.9 149.8 228 6 10.1 9.1 14.4 9.6 13.5.5-.7.9-71.5.9-157.3 0-156.7-.4-170.9-3.5-152-2.4 14.1-10.2 29.2-20.7 39.6-7.3 7.3-18.6 14.7-26.7 17.5-13.8 4.7-20.1 5.4-51.1 5.4-15.9 0-29 .2-29 .5 0 .2 3.1 5.3 6.8 11.2 8.7 13.8 8.4 13.3 7.9 13.3-.2 0-4.3-5.5-9.1-12.3-4.8-6.7-12-16.7-16.1-22.2l-7.3-10 42.2-.5c45.4-.6 43.4-.3 55.3-6.4 6.8-3.4 16.7-12.7 21.5-20 7.9-12.2 9.6-23.9 7.9-52.6-1.4-23.2-3.4-39.3-7.2-58.5-16.5-83.3-59.7-156.6-127.9-216.7-61.9-54.6-129.7-84.8-213.5-95-7.3-.9-23.1-1.3-47-1.3-32.2 0-37.9.3-54 2.4l-17.9 2.4-3.4-3.9c-1.8-2.2-6.5-8-10.2-12.9-3.8-5-29.8-37.6-57.8-72.5-28-34.9-50.4-63.7-49.8-63.9 24.3-8 44.7-24.6 54.9-44.6 1.6-3.3 45.8-134.5 98.2-291.4 52.3-157 95.4-285.1 95.7-284.5.3.5 43.2 128.9 95.3 285.4 57 171.2 96.1 287.2 98.2 291.2 10.3 19.9 34.6 38.7 57.8 44.9 10.2 2.7 32.7 3.7 44.7 1.9 11.1-1.6 24.9-6.1 32.7-10.7 12.8-7.6 25.8-21.9 32.7-35.8 5-10.2 287.1-857 288.9-867.4 5.3-29.7-4.8-59.3-28-82.6-13.2-13.2-25.1-20.1-43.7-25.3-9.8-2.7-42.4-2.3-53 .6-10.1 2.7-18.5 6.2-25.5 10.3-7.7 4.6-20 17-24.4 24.7-3.9 6.7-10.7 26.8-131.8 388.7-36.8 110-67.2 199.3-67.5 198.5-.3-.8-42.9-128.3-94.5-283.2-102.2-306.6-97.2-292.7-110.6-309.6-11.1-14-25-23.3-43-28.8-8.5-2.6-10.1-2.8-28.5-2.8-17.1 0-20.5.3-27.5 2.2-27 7.5-46.7 24.9-59.4 52.4-2.1 4.6-46 134.6-97.6 289.1-51.6 154.4-94 280.6-94.2 280.4-.2-.2-43.7-129.8-96.7-287.8-53-158.1-97.1-289-98.1-290.9-3.3-6.6-10.3-15.6-16.7-21.5-11.7-11-23.5-17.5-38.9-21.6-11.8-3.1-33.9-3.8-46.4-1.4-15.8 2.9-31.2 10.2-43.6 20.7-12.4 10.4-24.4 29.3-29.5 46.4-3.5 11.9-4.4 31.6-2 44.9 1.1 5.9 40.6 126 114.8 348.5 62.2 186.7 113.3 340.2 113.6 341 1.6 4.5-73.8-94.9-103.5-136.5-73.7-103.2-134.9-202.7-189.6-308-20.8-40.1-48.2-97.9-62.9-132.4-2.2-5.3-4.2-9.8-4.4-10-.2-.2-.1 1.4.2 3.5.4 2.7.2 3.4-.4 2.4-1-1.6-15.5-35.5-19.2-45l-2.1-5.5 3 3.5c2.9 3.3 2.8 2.8-2.6-10.5-23.4-58.9-47.9-133-65.2-197.5-70.3-262.4-71.6-522-3.7-746 59-195.1 168.6-362 303.5-462.4 30.1-22.4 55.6-37.9 93.6-56.6 116.3-57.4 222.7-88.8 336.5-99.6 22.8-2.1 86.6-3 111.2-1.5 66.8 4.1 129.5 15.3 193.3 34.6 23.9 7.3 36.9 11.8 31.5 11-1.9-.3-11.1-1.6-20.5-2.9-40.5-5.9-70.1-7.9-114.5-7.9-46.2 0-76.1 2-120.5 8.4-105.4 15.1-211.5 51.4-302 103.4-131.5 75.5-236.9 180.6-311.1 310.3-9.3 16.2-29.5 55.7-36.9 72.2-76.1 168.7-104.1 369-83.5 595.5 20.6 225.5 92.4 472.5 208.5 717.5 17.3 36.5 57.2 114.6 58.1 113.7.2-.2-12.8-39.9-29-88.3-23.7-71.1-31-91.7-38.1-107.9-99-225.5-159.1-454.9-174-664-4.6-64.9-4.8-137.9-.5-199 8-112.9 32-220.9 70.2-316 67.7-168.3 181.8-302.3 336.8-395.8 151.9-91.5 337.6-132.7 512.1-113.7 138.1 15.1 266.6 66.5 382.4 153 61.5 46 122.6 104.7 177.6 171 125.4 151.1 224.2 342.3 287.5 556.5 8.3 27.9 17.5 61.7 17.2 62.6-.2.3-3-5-6.2-12-30-63.9-70.6-129.4-116.7-188.6-137.1-176.1-333.8-307.7-545.2-365-84.1-22.8-161-32.6-245.2-31.2-78.9 1.2-147.1 12.4-217 35.4-187 61.5-330.5 196.7-417.8 393.8-54.1 122.1-87.2 272-94.8 429-1.2 24.7-.8 122.2.5 124.3.4.7 3.1-.5 7.6-3.4 23.9-15.4 58.7-20.9 90.1-14.2 1.1.2 1.5-3.5 2.1-20.7 3.7-107.4 20.1-210.6 48.8-306.3 53.8-179.6 150.5-318.7 282-405.7 93.7-62.1 197.6-96.2 318-104.5 30.5-2.1 87.5-1.1 120.5 2.1 272 26.2 535.7 187.4 693.4 423.9 57.3 86 96.9 173 125.1 274.5 3.1 11.4 5 21.3 7.6 41.4l3.5 26.4-2.4 2.6c-32.1 35-85.8 102.3-122.4 153.6-40 56-87.4 132.2-109.2 175.2l-3 6.1 2.8 1.2c2.6 1 2.8 1.5 2.4 4.9-.4 3.2-.1 4.1 1.8 5.5 3.2 2.2 4.8 2 6.1-.9.8-1.8 1.8-2.5 3.5-2.3 2.1.3 3.2-1.1 8.9-11.7 26.2-48.2 35.2-61.2 66.9-96 5-5.5 14.4-17.9 20.9-27.5 24.9-36.6 52.5-73.8 80.8-109.1 19.2-24.1 46.9-57.1 47.4-56.6.4.4 5.1 54.4 5.9 67.7.3 5.8.8 11.4 1 12.6.7 3.4-15.3 24.5-21.2 28-10 5.7-34.3 22-45.8 30.7-39.4 29.6-80.7 70.9-110 109.9-51.4 68.2-82.8 144-94.4 227.8-3.7 27.1-4.6 41.7-4.6 76.5 0 20.3.5 39.6 1.3 48 6.2 66.2 21.4 121.3 48.7 177 17.5 35.7 38.1 67.3 66.5 101.5 13.2 16 52.8 55.6 69 69 6.9 5.7 12.6 10.4 12.7 10.4.1.1-2.7 12.1-6.2 26.6-21.6 90.4-42.3 163.2-70.7 248.9l-14 42.4 12 12c10.7 10.7 12.1 11.8 13 10.1 1.9-3.6 27.1-80 36.1-109.5 16.7-55.1 33.9-117.7 46.1-168.3l5.3-21.8-3.8-3.2-3.8-3.2 2.4-9.7c1.2-5.4 2.5-9.6 2.9-9.5.3.2 7.7 5.1 16.5 10.9 22.8 15.2 51.2 30.8 72.3 39.7 6.4 2.8 7-1.2-5 37.7-15.8 51.8-34.4 105.7-53.3 155-13.9 36.3-12 33-23.8 40.6-5.6 3.7-15.4 10.6-21.7 15.5-14.3 11-45.9 42.4-56.5 56.2l-8 10.3-3-3.7c-35.6-44.3-68.5-72.2-109.8-93.4-30.4-15.7-58.2-24.6-93.7-30.2-12.9-2-18.1-2.2-48-2.2-29.3 0-35.2.2-47 2.1-54.6 8.6-99.5 27.7-140.5 59.8l-9.5 7.5v-9.3c0-5.2-.5-12-1.1-15.2-3.9-21-22.2-40-43-44.5-8.2-1.8-25-.9-32.4 1.8-17.5 6.4-32.3 23.2-36 40.9-2.2 10.2-2.2 692.4 0 702.6 3.7 17.7 18.5 34.5 36 40.9 7.4 2.7 24.2 3.6 32.4 1.8 20.4-4.4 38.4-22.5 42.7-42.9 1.1-5.5 1.4-41.6 1.4-226.7 0-146.6.4-223.6 1.1-230.5 4.5-45.1 23.8-84.9 57.2-118 28.4-28.3 59.7-45.4 98.4-53.6 12.1-2.6 14.3-2.7 39.3-2.8 27.9 0 32.6.5 51.5 5.2 58.3 14.5 110.9 61 133.5 118.1 9.9 25.1 13 44.8 13 83.2v27l-14.1 22.2c-66.6 105-144.5 205.6-228.9 295.3-26.4 28-46.8 48.8-42.8 43.5 1.9-2.5 9.3-11.9 16.5-21 65.3-83 124.5-173.8 179.3-275.1 14.3-26.5 46.1-90.2 58.9-118.2l9-19.7-1-5.6c-1.7-9.3-13.1-39.6-14.4-38.3-.2.2-6 13-13 28.4-19.6 43.3-49.1 103.1-66 134-74.4 135.9-143.9 237.1-235 342.2l-7 8.1-1.6-4.1c-.8-2.3-4.4-11.9-8-21.2l-6.4-17-.5 22c-.5 18.8-.9 23.2-2.8 30.5-2.8 10.1-7.4 19.1-12.2 24-1.9 2-5.1 5.6-7 8.2-14 18.4-46.9 27.9-72.9 20.9-4.6-1.2-8.5-2-8.8-1.7-.3.2 4.3 9.6 10.3 20.7l10.7 20.3-10.8 10.4c-43.9 42.2-114.9 100.4-173 141.9-6.4 4.6-24.6 20.9-50.5 45.3-22.3 21-42.3 40-44.5 42.2-4.8 4.8-3.6 4.3 11.5-5 5.8-3.6 11.6-7.2 13-8 1.4-.9-2.6 3.4-8.8 9.4-10.8 10.5-13.4 14.4-9.3 14.4 3.1 0 35.9-20.4 85.1-52.8 70.9-46.7 140.7-97.8 205.7-150.5 2.6-2.1 1.4-4.6 13.4 26.6 53.6 139.2 87.1 275 101.3 411.2 6.1 57.5 7.9 95.2 7.9 159.9v51.8l5.2-20.8c24.6-97.8 65.7-191.3 121.1-274.9 12.7-19.2 23.3-31.2 61.9-70.4 48.2-48.9 98-93.5 157.4-141 113.5-90.7 241.2-173.8 424.6-276.5l35-19.6.5-7.1.5-7.1 9.5-5.3 9.5-5.2.6 15.6c.8 22 4.2 30.6 16.8 43.1 11.5 11.3 23.3 16 40.1 16 10.7 0 17.1-1.5 26.5-6.2 8.3-4.2 20-16.2 24.4-25.1 5.4-11.2 6-17.2 6.1-63.7v-41.5l8.9-4.8c4.9-2.6 9.1-4.7 9.4-4.7.4 0 .7 2.9.9 6.4l.3 6.4 33.2-17.6 33.2-17.6-1.8-3.1c-1-1.6-4.9-8-8.6-14-3.7-6.1-7.2-10.9-7.7-10.7-.6.2-15.9 8.2-34 17.8-18.1 9.5-33.1 17.4-33.3 17.4-.2 0-.6-77.3-.8-171.8-.3-156.7-.4-172.9-2-185.2-4.9-37.4-13.4-66.4-28.7-97.5-16.3-33.2-35.4-59.1-64.7-87.6-44.2-43-94.5-69.9-152.5-81.3-38.1-7.6-88.7-7.6-126.6 0-21.8 4.3-50.7 13.4-63.2 19.9-1.8.9-3.1 1.3-2.9.8.2-.5 2.4-6.2 4.9-12.6l4.5-11.8 5.8-2.1c3.2-1.1 6.2-2.8 6.7-3.7 1.5-2.9 21.5-59.9 29.3-83.6 10.9-33.2 20.6-64.9 20.1-65.7-.3-.4-2.2-1.3-4.3-1.9l-3.9-1.1 2.5-8.2c1.3-4.4 2.6-8.7 2.8-9.3.3-.9 2.8-.4 9.2 1.8 41.3 14.6 86.2 23.6 134.8 27 33.7 2.3 84.4.4 119-4.7 85.8-12.4 166.3-47.8 236.3-104 7.3-5.8 15.8-13.1 18.8-16.2 19.1-19.5 28.8-49.1 25.6-77.9-1.6-13.8-3.4-20.8-8.3-31.1-5.2-11.3-11.1-19.3-21.1-28.8-18.7-17.6-40.9-25.4-69.2-24.1-23.8 1-40.9 8.2-64.1 26.8-49.4 39.7-97.6 60-160 67.5-19 2.2-58 2.3-76.5 0-17.8-2.2-39.4-6.7-55.7-11.6-13.1-3.9-38-13.4-39.7-15-.5-.5-.1-4.7.9-10 1.9-9.9 1.5-9.6 8.1-7.5 2.1.6 2.3-.3 6.8-23.2 8.8-45.8 22.6-128.1 22.6-135.2 0-2-.4-2.1-14.5-2.1h-14.4l-.5 3.2c-7.2 44.3-12.5 75.6-15.7 93.3-4.6 25.1-13.7 70.6-14.2 71.1-.6.6-23-13-32-19.3-21.1-14.9-43.1-34.7-58.9-53.1l-8-9.2 2.2-12.7c1.1-7 2.2-12.9 2.4-13 .1-.1 1.6 1.6 3.4 3.8 3 4 3.1 4 3.6 1.8.7-2.8 9.6-63.3 9.6-64.8 0-1.7-28.9-1.5-29.4.1-.2.7-2.4 14.5-4.7 30.5-2.4 16.1-4.6 29.3-4.9 29.3-1.9 0-20.9-35.5-27.6-51.7-3-7.2-10.4-27.8-10.4-29 0-.1 167.3-.4 371.8-.5l371.7-.3 9-2.8c33.3-10.3 57.7-35.1 65.6-66.9 6.3-25.3 1.5-93.1-10.3-144.8-20.6-90.6-65.2-169.9-134.5-239.4-87.7-87.9-188.4-136.9-308.3-150.2-19.8-2.1-72.7-3-94.5-1.5-14.6 1-39.4 3.8-51.6 5.7-4.1.7-4.1.7-5.5-12.4-.5-4.9-.4-6.2.7-6.2 3.9-.1 4.1-1.2 1.9-15l-2-13.3 8.7-12.1c55.9-77.8 127.6-149.9 205.4-206.6 185.7-135.2 419.3-199.8 648.9-179.4 160.4 14.2 309.5 71.2 422.5 161.5 73.4 58.6 130.3 128.4 171.5 210 14.6 28.9 32.4 72.1 39.1 94.6 1.2 4.1 1.6 4.5 12.8 10.4 45.9 24 90.8 57 130.9 96.3l16.2 15.9v-5c0-2.8-.7-11.9-1.5-20.4-8.9-89.6-29.9-168.9-64.9-244.2-2.5-5.3-4.3-9.7-4.1-9.7.2 0 5.5 7.8 11.8 17.2 72.6 109.8 117.3 226.7 135.7 354.8l2.1 14.5 8.4 17c8.8 18 13.6 29 20.5 47.3 2.4 6.2 4.4 11.1 4.5 11 .2-.2-.3-8.2-1.1-18-13.3-177.9-75.3-344.2-180.7-484.3-42.8-56.9-84.3-101.7-137.2-148-8.8-7.7-20.4-17.9-25.9-22.8-72.2-64.5-167.8-118.3-270-152.2-170.2-56.4-361.5-62.4-546.1-17-88.4 21.7-176 56.1-254.5 99.8-33.4 18.6-75.9 45.7-103.1 65.9-6.9 5.1-22.9 16.9-35.5 26.2-80 59.2-148.9 120.4-217.1 192.8l-10.1 10.8-.7-4.3c-.4-2.3-2.9-14.8-5.6-27.6-2.7-12.9-4.9-24-4.9-24.7 0-.7 7.3-7.9 16.3-16.1 236.2-215.8 497.4-341.2 764.8-367.2 41.1-4 55.2-4.6 113.9-4.6 58.5 0 72.6.6 116 4.6 230.7 21.2 445.2 104.5 611 237.3 50.8 40.7 101.8 91.1 140.7 139.3 43.8 54.1 81.8 114.7 108.4 172.5l7.2 15.7 4.6-3.7c2.5-2.1 7-5.5 9.9-7.6 2.8-2.1 5.2-4.2 5.2-4.7 0-1.6-17.5-37.2-26.1-53.1-54.4-100.8-132-194.8-224.9-272.3-164.1-136.9-382.9-226.7-616.5-253-54.2-6.1-93.8-7.9-156.5-7.2-51 .5-64.1 1.2-104.2 5.2-269 26.9-530 150.8-764.2 362.9-7.7 6.9-14.3 12.6-14.6 12.6-.3 0-2.1-6.2-3.9-13.8-18.5-75.7-49.6-171.5-80.5-247.8-86.8-214.9-211.1-406-366.1-563.3-85.7-86.9-168.9-153.2-275.3-219.4-108.4-67.5-211.8-115.3-311.5-144.1-61.2-17.7-122.7-28.5-185.2-32.6-13.5-.9-78.8-1.1-92.5-.3zm923.8 498.8c111.1 129.2 205.2 282.5 274.5 447.5 34.5 82.2 62.2 166.2 85.8 260.5l9 36-15.9 15.5c-8.7 8.5-25.5 25.5-37.3 37.8l-21.6 22.3-1.2-9.8c-3.5-29.4-14.6-95.5-22.7-136.3-51.9-259.5-145.1-486.5-277.7-676.3-5.3-7.6-10.2-14.8-10.9-16-1-2.1-1-2.1.7-.7 1 .8 8.8 9.6 17.3 19.5zm382.5 809c2.6 13.2 5 26.3 5.5 29.1l.9 5.1-10 11.4c-14.1 16.2-47.2 55.9-60.2 72.3l-11 14-.8-8.5c-1.5-17.2-5.8-60.6-6.3-65l-.6-4.6 12.8-13.9c20.2-21.8 63.7-65.5 64.5-64.7.3.5 2.7 11.6 5.2 24.8zm5.8 104.3c-5 9-9.1 16.5-9.1 16.7 0 .1 4.3-.8 9.6-2.2 5.3-1.3 10.4-2.3 11.3-2.1 1.2.2 1.9 2.4 2.7 8.8.7 4.7.9 8.8.5 9.1-.3.3-5.8 1.9-12.1 3.4-23.4 5.6-53.8 15.7-74.2 24.5l-8.9 3.9 6.8-8.7c18.3-23.7 16-21.5 27.5-25.7l10.3-3.7 7.3-9.1c4-5.1 13.7-16.7 21.5-25.9l14.2-16.7.9 5.7.8 5.7-9.1 16.3zm166.5 212.8c119 13.7 224.2 95.2 265.2 205.4 2.7 7.4 5.3 14.5 5.7 15.7l.6 2.3H2810l.6-2.8c2.8-11.8 15.2-41.3 24.2-57.7 12.7-23 33.4-51 47.7-64.5l3.7-3.5-.6 18c-1.3 33.3-3.6 82-4.2 86.2l-.5 4.3h28.9l.6-6.3c1-10.6 4.5-88.2 4.6-100.6 0-2.5 0-2.4-3.5.9l-3.5 3.4v-13.5l.1-13.4 7.2-5.6c18.4-14.3 42-29 62.2-38.4 13.9-6.6 40.5-16.8 41.3-16 1 .9.9 126.4-.1 160.7l-.8 28.8h27.8l.7-6.8c1.5-16.2 2.7-95.4 2.1-132l-.7-39.4-3.4.7-3.4.6v-9.5c0-5.2.4-9.7.9-10 3.5-2.2 43-8 60.6-9 11.4-.6 39.1.5 52.1 2zM1735.9 3210.2c5.2 6.8 6.8 9.4 5.7 9.6-.9.2-1.6.5-1.6.8 0 .2 12.3 16 27.3 35.1 39.3 50.1 54.9 70.2 86.7 111.8 19.7 25.8 29 37.2 30.6 37.5 1.4.3 4.8 3.8 8.8 9.2 3.6 4.8 6.6 9 6.6 9.3 0 .3-97.9.5-217.5.5h-217.4l.6-3.3c1.4-7.2 7.4-28.1 10.8-37.3 9.4-25.6 28.5-58.2 46.8-79.9 11.1-13.1 33.8-35.2 45.7-44.4 36.2-28.1 76.8-46.4 120-54.1 10.1-1.9 26.9-3.8 33.6-3.9l6-.1 7.3 9.2zm52.4-6.2c66.7 10.1 126 44.5 172.4 99.9 29.3 35.1 47.4 72.1 57.7 118.3.4 1.7-2.3 1.8-45.4 1.8h-45.8l-7.3-10.1c-28.1-38.3-113.9-149.9-152.3-197.9-5.5-6.9-10.5-13.1-11-13.9-.9-1.2.4-1.3 8.9-.7 5.5.4 15.8 1.6 22.8 2.6zm1238.6-1.5c35.7 5.1 67.8 19.4 95.6 42.7 33.3 27.8 56.2 63.1 66 101.7 6.3 24.9 5.9 10 6.2 230.2l.4 200.6-44.3 24.5c-139.7 77.5-249.8 144.6-333.8 203.5-34.9 24.4-35.7 24.6-5.5 1.4 70.9-54.5 150.8-108.9 247.5-168.8 25.3-15.6 96.7-58.5 110.3-66.2l5.7-3.2v-205.8l-13.7 7.6c-133.3 73.5-238 141.2-326.5 211.3l-14.5 11.5-.6 19c-.4 16.4-.9 20.3-3.2 28.5-5.2 19-17.7 35.2-34.7 45.3-11.2 6.6-30.4 11.4-42.3 10.4-6.2-.6-22.1-4.2-26.6-6.1-2.3-1-43.9 42.4-72.5 75.4-65.7 75.9-119.1 156.1-164.5 246.9l-14.7 29.3-5.7-17.3c-15.2-45.9-42.6-116.2-63.5-162.9-4.5-10.2-5.7-14.4-10.1-36-8.6-41.9-18.3-81.1-29.7-119.7l-4-13.3 22.2-20.9c107.1-101.1 207.4-218.4 286.1-334.6l10.5-15.5v-19.5l9.3-14.3 9.2-14.4.5 178.4c.5 139.9.9 179.3 1.8 182.8 2.7 9.3 7.5 17.4 15.2 25.1 11.8 12 23.3 16.9 40 16.9 16.8 0 28.6-4.7 40.1-16 7.1-7 10.8-12.6 14.2-21.7l2.2-5.8.5-228c.7-249.8.3-233.9 6.5-258.4 6.9-27.1 19.8-52 38.7-74.6 32.8-39.2 74.6-63 122.8-70 12.2-1.8 46.2-1.8 58.9 0zM2411.3 4174c10.3 27.4 23.8 67 30.6 89.2l4.2 13.8-8.7 21.7c-4.8 12-12.4 32.1-16.9 44.7-5.4 14.9-8.5 22.2-8.8 21-.4-1-1.5-6.2-2.7-11.4-1.8-8.8-2-13.9-2.4-72-.2-45.2-.8-68.4-2-84-1.9-25.3-3.4-43.1-4.1-48-.9-5.7.6-2.3 10.8 25z"/><path d="M1803.1 3229.1c9.2 12.2 92.5 130.6 114.4 162.7l9 13.1 33.9.1h33.8l-.7-2.8c-1.4-5.7-8-22.1-13-32.7-17.1-35.5-44.1-68.6-78.2-95.8-20.5-16.3-51.8-33.1-77.6-41.5-8.6-2.9-17.5-5.5-19.9-5.8l-4.3-.7 2.6 3.4zM5077.7 1479c-30.6 5.5-56.8 25.8-70.1 54.1-8.9 19-8-.9-8.4 203.6l-.2 181.3h-26.9c-19.3 0-29 .4-34.3 1.4-19.7 3.9-34.8 12.5-50.4 28.7-17.7 18.5-25.7 38.5-25.7 64.4-.1 27.5 7.7 47.6 25.7 66.4 15.6 16.2 30.7 24.8 50.4 28.7 5.3 1 15 1.4 34.3 1.4h26.9v245.2c0 155.7.4 250.4 1 259.3 6 82.9 24.8 144.3 60.3 197.5 12.7 19 34.5 42.8 52.7 57.4 37.4 30 86.9 52.2 141.4 63.5 35.8 7.5 67 10.6 107.1 10.6h30l9-2.8c16.2-5.1 29.3-13.4 41.6-26.5 8.4-8.8 12.1-14.2 16.9-24.5 6.8-14.5 8.5-22.7 8.4-41.7-.1-19-1.6-26.7-8.4-40.8-5-10.4-8.6-15.7-16.9-24.4-16.6-17.7-37.5-28.1-58.6-29.4-4.4-.2-16.1-.9-26.1-1.4-21.4-1.1-35.8-3.1-51.2-7.1-30.3-7.8-53.4-20.8-72.4-40.8-21.3-22.4-33.1-48.9-40.5-91.1-1.5-8.7-1.7-31.4-2-256.3l-.3-246.7h62.3c39.1 0 64.5-.4 68.3-1.1 19-3.3 35.8-12.3 50-26.6 13.5-13.6 21.9-29.1 25.6-47.3 2.7-12.8 2.1-35.8-1.1-46.8-10.3-35.3-39.4-61.9-74.5-68.1-3.8-.7-29.1-1.1-68.3-1.1h-62.2l-.3-179.8-.3-179.7-2.4-8.5c-2.7-9.8-8.4-22.7-13.2-29.7-9.1-13.1-26.7-28.2-40.3-34.3-12.4-5.7-19.7-7.2-36.6-7.5-8.5-.2-17.7 0-20.3.5zM4247 1919.1c-109.5 8.7-202.1 46.5-285.5 116.3-16.6 13.9-48.3 45.2-63.2 62.6-65.1 75.4-104 160.4-117.2 256-3.7 27.1-4.6 41.7-4.6 76.5 0 20.3.5 39.6 1.3 48 6.2 66.2 21.4 121.3 48.7 177 17.5 35.7 38.1 67.3 66.5 101.5 12.9 15.6 52.5 55.4 68.5 68.7 85.3 71.1 178.7 108.6 290 116.4 33.7 2.3 84.4.4 119-4.7 85.8-12.4 166.3-47.8 236.3-104 7.3-5.8 15.8-13.1 18.8-16.2 19.1-19.5 28.8-49.1 25.6-77.9-1.6-13.8-3.4-20.8-8.3-31.1-5.2-11.3-11.1-19.3-21.1-28.8-18.7-17.6-40.9-25.4-69.2-24.1-23.8 1-40.9 8.2-64.1 26.8-49.4 39.7-97.6 60-160 67.5-19 2.2-58 2.3-76.5 0-116.5-14.2-216.5-89.1-260.6-195.3-3-7.2-10.4-27.8-10.4-29 0-.1 167.3-.4 371.8-.5l371.7-.3 9-2.8c33.3-10.3 57.7-35.1 65.6-66.9 6.3-25.3 1.5-93.1-10.3-144.8-20.6-90.6-65.2-169.9-134.5-239.4-87.7-87.9-188-136.7-308.3-150.2-17.1-1.9-81-2.8-99-1.3zm78.6 192.5c119 13.7 224.2 95.2 265.2 205.4 2.7 7.4 5.3 14.5 5.7 15.7l.6 2.3H3981l.6-2.8c2.8-11.8 15.2-41.3 24.2-57.7 50-90.6 146.7-153.5 251.2-163.4 23.2-2.2 46.6-2.1 68.6.5z"/><path d="M4549 2276c0 1.2-4.1 32.9-4.6 35.7l-.6 3.3h12.6c6.9 0 12.6-.4 12.6-.9 0-1.1-16.1-33-18.3-36.1-.9-1.3-1.7-2.2-1.7-2zM4935.3 2130.6c6.9 43.4 10.4 120.8 7.8 170.9-12.6 240.2-106.4 477.2-275 695.5-17.2 22.3-34 43.3-46.9 58.4-5.6 6.6-9.9 12.2-9.7 12.6.2.4 4.3 1 9.1 1.4 4.7.3 13.2 1.3 18.7 2.2l10.2 1.5 3.4-3.8c6.8-7.8 38.3-47.4 50.6-63.8 94.5-125.6 163-253.5 208.6-389.5 31.9-95.4 50-183.7 57.9-283 1.8-21.6 2.4-88.8 1.1-112.5-1.6-29.5-5.9-72.6-8.7-88.1l-.6-3.1-10.6-.7c-5.9-.3-12-.9-13.6-1.2-2.9-.7-2.9-.7-2.3 3.2zM4758.3 2532.8c-5.1 2.4-12.8 5.4-17 6.6l-7.7 2.1-1.5 5c-.8 2.8-5.3 16.9-10.1 31.5-13.3 40.4-26.1 71.9-46.2 113.2l-10.1 20.8 2.4 10.2c2.1 9 2.4 12.7 2.4 28.9v18.6l8.3-15.1c37.9-68.6 65.1-135.8 84.7-209.2 2.5-9.2 4.4-16.8 4.2-16.9-.1-.1-4.4 1.8-9.4 4.3zM4485.3 2546.7c-3.8 10.9-18.9 48.1-25.9 63.8-10.3 23.4-28.8 60.7-40.7 82.2-9.4 17-9.8 16.4 5.1 8.9 18.1-9.1 33.2-19 51-33.4 12.3-10 24.9-18.3 33.6-22.2 11.8-5.4 34-10.3 50.6-11.2l4.5-.3 8.7-19.5c7.3-16.5 18.6-43.9 26.7-64.8l2.1-5.2h-57.5c-53.9 0-57.6.1-58.2 1.7zM1635.5 2861c-13.6 40.6-13.8 41.1-20.6 51.4-6.8 10.3-16.6 21.1-23.4 25.7-1.9 1.3-3.5 2.7-3.5 3.2 0 .9 20.1 24.6 42.4 50.1 10.9 12.5 22.1 27 37.3 48.4l21.6 30.4 5.1-.6c15.7-1.8 39.3-2.8 57.6-2.3 35.3 1.1 63 4.9 96.4 13.3 5.4 1.4 10 2.3 10.2 2.2.2-.2-8.7-11.6-19.8-25.3-81.3-100.8-131.9-164.4-167.1-210-11.5-14.9-21.2-27.1-21.7-27.3-.4-.2-7 18.2-14.5 40.8zM4604 2860.2c-17.6 13-38.5 26.9-53.5 35.4-6.6 3.7-13 7.3-14.2 8-1.1.7-6.8 6.6-12.4 13.1-40 45.7-87.2 93.4-135.4 136.8-14.5 13.1-55.3 48-68.7 59-5.4 4.4-9.8 8.6-9.8 9.5 0 .8.7 4 1.5 7 .9 3.5 1.5 10.2 1.5 18.2 0 7.1.2 12.8.4 12.8 1 0 28.8-21.9 45-35.4 73-61 142.7-129.2 194.4-190.3 23.4-27.6 66.2-82.7 65.1-83.8-.2-.1-6.5 4.2-13.9 9.7zM4203 2966.2c-48.1 46.7-128.2 109.6-203.7 160l-20.1 13.4 9.6 7.1c25.6 18.8 59.4 51 77.9 74.2l2 2.4 16.9-13.3c19.8-15.6 50.6-40.8 65.2-53.3l10.2-8.8v-6.8c0-9 3.9-24.3 8.5-33 6.9-13.2 18.8-25 32.6-32.6 2.5-1.3 9.1-3.7 14.5-5.2 8.1-2.3 11.9-2.7 21.4-2.7h11.5l21.7-21.9c29.5-29.6 80.3-84.5 79.3-85.6-.2-.2-7.5.3-16.2 1-22.3 1.9-75.1 1.7-95.8-.5-8.8-.9-18.5-1.9-21.5-2.1l-5.5-.6-8.5 8.3zM218 3088.4c-20 5.6-36.4 22.7-40.6 42.5-2.1 10-2.1 692.3.1 702.4 3.7 17.7 18.5 34.5 36 40.9 7.4 2.7 24.2 3.6 32.4 1.8 20.4-4.4 38.4-22.5 42.7-42.9 1.1-5.5 1.4-41.6 1.4-226.7 0-146.6.4-223.6 1.1-230.5 4.5-45.1 23.8-84.9 57.2-118 28.4-28.3 59.7-45.4 98.4-53.6 12.1-2.6 14.3-2.7 39.3-2.8 27.9 0 32.6.5 51.5 5.2 36.8 9.1 70.4 30.1 97.8 60.8 20.9 23.5 35.3 50.2 42.7 79.1 6.3 24.2 6 13.1 6 255.7.1 182.8.3 222.5 1.4 228.9 2.1 11.3 6.7 19.9 15.6 28.9 11.8 12 23.3 16.9 40 16.9 16.8 0 28.6-4.7 40.1-16 7.1-7 10.8-12.6 14.2-21.7l2.2-5.8.5-228c.7-249.8.3-233.9 6.5-258.4 6.9-27.1 19.8-52 38.7-74.6 28.3-33.8 64.9-57.1 104.4-66.6 28.1-6.7 67.7-6.7 95.8 0 67.6 16.2 126 73.7 143.1 141 6.3 24.9 5.8 7.2 6.5 258.1l.5 228.5 2.2 5.8c3.4 9.1 7.1 14.7 14.2 21.7 11.5 11.3 23.3 16 40.1 16 16.7 0 28.2-4.9 40-16.9 9.2-9.3 13.6-17.6 15.6-29.6 1.3-7 1.4-41.3 1.1-233.1-.2-208-.4-225.9-2-238.4-4.9-37.5-13.4-66.4-28.7-97.5-16.3-33.2-35.4-59.1-64.7-87.6-51-49.7-110.9-78.1-179.7-85.4-18.8-1.9-53.4-1.9-72.2 0-63.3 6.7-120.7 32.2-168.5 74.8-13.4 11.9-32 31.6-41.4 43.6l-8 10.2-3-3.7c-35.6-44.3-68.5-72.2-109.8-93.4-30.4-15.7-58.2-24.6-93.7-30.2-12.9-2-18.1-2.2-48-2.2-29.3 0-35.2.2-47 2.1-54.6 8.6-99.5 27.7-140.5 59.8l-9.5 7.5v-9.3c0-5.2-.5-12-1.1-15.2-3.7-20.3-20.9-38.7-41-44-6.6-1.8-23.7-1.8-29.9-.1z"/><path d="M3710 3087.6c-53.3 4.9-96.7 16.7-140.5 38.4-39.1 19.4-68.9 40.8-102.4 73.5-46.5 45.5-78.3 94.7-97.9 151.5-28.3 82.3-28.3 179.7 0 262 18.6 53.8 47.6 100 90.3 143.9 20.4 21 48.7 44.9 65.7 55.6 2.7 1.7 4.8 3.3 4.8 3.6 0 .6-61.5 29.4-116 54.2-66.4 30.2-137.3 61.5-239.5 105.7-26.9 11.6-68.8 29.7-93 40.2-172.8 74.7-243.8 109-306 147.6-94.3 58.6-180.1 129.9-250.5 208.2-14.8 16.4-27.4 31.2-33.3 39.1-6.4 8.5-6.4 8.5-5 29.1.5 8.1.8 9.6 2 8.7 1-.9 1.3-.4 1.3 2.9 0 4.7 1.9 6.8 4.8 5.3 1.1-.6 8-8.3 15.3-17.3 7.4-8.9 18.1-21.6 23.8-28.2 73.8-85.9 169-165.3 274-228.5 54.8-33 128.4-67.8 303.6-143.6 175.7-76 237.5-103.1 316.3-138.9 52.3-23.8 113.2-52.2 114.5-53.5.5-.5-1.5-2.2-4.8-4.1-3.1-1.8-5.3-3.5-5-3.9.4-.3 4.9-2.6 10.1-5.1l9.5-4.5 18.2 9c37.4 18.5 74.6 29.6 119.6 35.7 14.7 2 20.9 2.3 53.1 2.3 37.3 0 44.6-.5 70-4.6 94.7-15.4 179.5-66.7 244.1-147.5 16.4-20.5 29.9-41.7 42.2-66.4 13.3-26.5 20.5-45.6 27.7-73.5 8.7-33.4 12.3-63.3 12.3-102.5 0-63.2-11.4-116.4-35.9-167.9-3.5-7.4-6.3-13.5-6.2-13.5.2-.1 3.6-2.3 7.5-4.9 4-2.6 7.6-4.7 8-4.7.5 0 2 2.2 3.6 4.9l2.7 4.9 20.4-13.6c12.2-8.2 20.7-14.5 21-15.7.3-1.1.6-10.2.6-20.3 0-14.2-.3-18.3-1.2-18-.7.2-17.5 11.1-37.3 24.4l-36 24.1-7.2-11.1c-15.9-24.5-32.5-44.9-55.2-67.7-58-58-121.6-92.8-198.5-108.5-26.5-5.4-39.6-6.6-76.6-6.9-19-.1-36.5-.1-39 .1zm65 114.4c61.4 6.4 113.3 30.1 160.3 73.2 17.3 15.8 38.9 41.8 49.9 60l4.7 7.7-40.7 24.4c-111.8 67-216 124.8-410.9 228.2-13.4 7.1-24.3 13.3-24.3 13.9 0 1.3 8.8 15.8 13.5 22.4 1.7 2.3 3.5 4.2 4.2 4.2 1.8 0 134.5-70.6 201.8-107.3 59.5-32.5 139.5-77.5 184-103.5 16.9-9.8 69.6-41.2 70.3-41.8.2-.1-.6-2.4-1.7-4.9-1.2-2.6-2.1-5.3-2.1-5.9 0-1.1 14.4-10.2 15.7-9.9 1 .2 6.7 13.7 10.9 25.8 18.5 52.9 20.1 118.4 4.3 173.4-12.7 44.1-36.1 83.2-70.9 118.1-44.4 44.6-93.9 70.4-153.5 80.1-23 3.7-74.6 3.7-92.5 0-3.4-.7-3.2-.8 11.7-8.4l15.2-7.7h26.4l27.6-14.6c54.5-28.9 114.6-62.2 162.1-89.8l22.5-13.1 4.6-7c7.8-11.7 15.3-26.6 21.8-43.3l2.1-5.3-2.2 1.2c-1.2.7-6.2 3.6-11.2 6.6-76.5 46.4-185.5 106.6-283.5 156.6l-33.3 17-9.4-3.1c-37.6-12.5-73-34.4-104.3-64.7-48.6-47-76.1-101.8-84.3-167.5-1.7-13.7-1.7-56.3 0-70 8.2-65.7 35.8-120.5 84.3-167.5 45.6-44.2 98.1-69.5 159.3-76.9 13.2-1.6 54.2-2 67.6-.6z"/><path d="M3800 3246.1c-61.3 33.8-131.3 69.8-232.9 119.8l-74.4 36.7-1.4 3.9c-.8 2.2-2.3 7.9-3.3 12.6-11.8 53-7.4 117.5 10.9 160.3 1.9 4.4 2.2 4.6 4.3 3.5 1.3-.7 19.4-10.9 40.3-22.7 111.6-63.2 209.2-121.4 291-173.5 19.9-12.7 104.4-68.6 108.9-72.1 1.7-1.4 1.4-2-5.9-9.9-14.4-15.8-33.6-32.2-51.2-43.8-15.6-10.3-48.1-26.1-58.3-28.3-1.9-.4-8.3 2.7-28 13.5zM4222 3088.4c-15.6 4.3-29 15.5-36.4 30.3-6 12-5.6-13.7-5.6 363.3 0 382.8-.5 351.5 6.6 365.1 6.3 12 18.3 22.5 30.9 27.1 7.4 2.7 24.2 3.6 32.4 1.8 18.8-4.1 34.2-18.4 41.7-38.5 1.8-4.8 1.9-12.7 2.5-194.5.6-207.3.2-195.1 6.4-223.5 11.6-53.5 37.9-99.6 79.8-140.2 45.9-44.4 98.8-69.7 161.2-76.9 18-2.1 62.4-1.5 78.5 1.1 20.9 3.3 39.4 8.1 57 14.9 5.2 2.1 12 4.7 15 5.8 7.7 3 25.4 3.7 33.6 1.3 10.4-3 17.4-7.3 25.4-15.4 9.1-9.2 13.5-17.6 15.6-29.4 4.1-22.7-4.6-44-23.3-57.4-15-10.7-57.3-24.5-94.5-30.8-27-4.5-46.1-5.8-80.8-5.2-38.6.7-59.4 3.2-91.5 11.3-63.3 15.9-118 46.2-171.2 95.1l-11.2 10.3-.3-36.2c-.4-36.2-.4-36.3-2.9-43-3.6-9.4-8-15.7-15.8-23.1-7.3-6.8-14.4-10.9-23.2-13.2-6.6-1.8-23.7-1.8-29.9-.1zM4827 3088.4c-20.8 5.8-37.5 24.1-41 44.9-1.6 9.4-.7 20.7 2.3 28.8 1.3 3.5 63.5 152.8 138.1 331.8 74.6 178.9 135.6 325.7 135.6 326.3 0 1.1-129.3 311.5-131.6 316-4.5 8.7-5.9 28.3-2.8 38.8 2.7 9.2 7.5 17.1 14.9 24.5 7.7 7.7 15.9 12.6 25 15 7.6 1.9 22.4 1.9 30 0 12.3-3.2 24.9-12.4 32.5-23.5 2.7-4 67.7-158.7 216-514.1 116.7-279.6 213.3-511.6 214.7-515.4 2.2-5.8 2.6-8.8 2.7-17.5.1-17.4-5.3-30.1-17.5-41.6-11.7-10.9-22.9-15.4-38.6-15.4-11.5 0-19.1 1.7-27.7 6.3-7.2 3.8-17.9 14.3-22.3 21.8-1.7 3-54.8 129.3-117.9 280.6-63.2 151.4-115.1 274.7-115.5 274-.4-.6-52.5-125.3-115.8-276.9-80.7-193.4-116.2-277.5-119-281.6-7.5-11.1-19.1-19.4-31.7-22.6-7.4-1.9-23.9-2-30.4-.2zM4159.8 3462.6c-.5.4-.8 9.8-.7 20.8 0 13.9.3 19.4 1 17.7 1.1-2.8.8-39.6-.3-38.5zM3328.2 3582.3l-.2 98.8 2.3-1.2c2.3-1.2 36-20 36.5-20.4.1-.1-1.5-4.2-3.6-9.1-20.6-46.9-32.9-103.1-34.5-157.9-.2-5-.4 35.5-.5 89.8z"/></svg>